HIERARCHY
ROOT Hips
{
	OFFSET 209.307602 92.720032 -309.275604
	CHANNELS 6 Xposition Yposition Zposition Zrotation Yrotation Xrotation 
	JOINT LeftUpLeg
	{
		OFFSET 0.103461 1.857818 10.548512
		CHANNELS 3 Zrotation Yrotation Xrotation
		JOINT LeftLeg
		{
			OFFSET 43.500000 -0.000019 0.000004
			CHANNELS 3 Zrotation Yrotation Xrotation
			JOINT LeftFoot
			{
				OFFSET 42.372200 0.000011 0.000000
				CHANNELS 3 Zrotation Yrotation Xrotation
				JOINT LeftToe
				{
					OFFSET 17.300009 0.000002 0.000004
					CHANNELS 3 Zrotation Yrotation Xrotation
					End Site
					{
						OFFSET 0.000000 0.000000 0.000000
					}
				}
			}
		}
	}
	JOINT RightUpLeg
	{
		OFFSET 0.103461 1.857838 -10.548504
		CHANNELS 3 Zrotation Yrotation Xrotation
		JOINT RightLeg
		{
			OFFSET 43.500042 -0.000038 0.000017
			CHANNELS 3 Zrotation Yrotation Xrotation
			JOINT RightFoot
			{
				OFFSET 42.372253 -0.000008 0.000015
				CHANNELS 3 Zrotation Yrotation Xrotation
				JOINT RightToe
				{
					OFFSET 17.299995 -0.000004 0.000004
					CHANNELS 3 Zrotation Yrotation Xrotation
					End Site
					{
						OFFSET 0.000000 0.000000 0.000000
					}
				}
			}
		}
	}
	JOINT Spine
	{
		OFFSET 6.901970 -2.603733 -0.000002
		CHANNELS 3 Zrotation Yrotation Xrotation
		JOINT Spine1
		{
			OFFSET 12.588097 0.000016 0.000005
			CHANNELS 3 Zrotation Yrotation Xrotation
			JOINT Spine2
			{
				OFFSET 12.343206 -0.000008 -0.000008
				CHANNELS 3 Zrotation Yrotation Xrotation
				JOINT Neck
				{
					OFFSET 25.832890 -0.000023 0.000008
					CHANNELS 3 Zrotation Yrotation Xrotation
					JOINT Head
					{
						OFFSET 11.766625 0.000019 -0.000006
						CHANNELS 3 Zrotation Yrotation Xrotation
						End Site
						{
							OFFSET 0.000000 0.000000 0.000000
						}
					}
				}
				JOINT LeftShoulder
				{
					OFFSET 19.745903 -1.480385 6.000111
					CHANNELS 3 Zrotation Yrotation Xrotation
					JOINT LeftArm
					{
						OFFSET 11.284122 -0.000021 -0.000025
						CHANNELS 3 Zrotation Yrotation Xrotation
						JOINT LeftForeArm
						{
							OFFSET 33.000057 -0.000001 0.000032
							CHANNELS 3 Zrotation Yrotation Xrotation
							JOINT LeftHand
							{
								OFFSET 25.200003 0.000023 0.000006
								CHANNELS 3 Zrotation Yrotation Xrotation
								End Site
								{
									OFFSET 0.000000 0.000000 0.000000
								}
							}
						}
					}
				}
				JOINT RightShoulder
				{
					OFFSET 19.746098 -1.480366 -6.000072
					CHANNELS 3 Zrotation Yrotation Xrotation
					JOINT RightArm
					{
						OFFSET 11.284136 -0.000004 -0.000006
						CHANNELS 3 Zrotation Yrotation Xrotation
						JOINT RightForeArm
						{
							OFFSET 33.000092 0.000029 0.000002
							CHANNELS 3 Zrotation Yrotation Xrotation
							JOINT RightHand
							{
								OFFSET 25.199776 0.000140 0.000420
								CHANNELS 3 Zrotation Yrotation Xrotation
								End Site
								{
									OFFSET 0.000000 0.000000 0.000000
								}
							}
						}
					}
				}
			}
		}
	}
}
MOTION
Frames: 17
Frame Time: 0.033333
209.307602 92.720032 -309.275604 91.002920 4.187267 89.714159 -175.152715 -1.448301 177.532708 -8.259832 -2.504903 -1.854039 81.758478 1.194222 -0.724374 21.454553 0.003095 0.000001 -177.686237 2.055805 178.313399 -14.860451 1.789648 0.722168 84.387984 -0.614276 -0.286943 21.454558 -0.003106 -0.000016 6.194044 -0.361989 -0.018731 2.354708 -0.697492 -0.062738 2.036588 -0.697583 -0.058419 17.471346 4.577233 -0.389760 -16.754685 -2.794060 0.615556 -67.419438 -81.716486 -115.137797 -10.720419 -1.939799 -7.818169 -8.026826 -13.326000 0.885818 8.978943 6.605035 11.374677 -134.295535 87.440977 47.521321 -0.001508 -0.845261 12.757830 -13.948822 17.503557 -1.190230 15.212740 3.676498 -16.694890 
209.309906 92.720482 -309.279297 91.002920 4.187270 89.707711 -175.154136 -1.448284 177.532708 -8.259826 -2.504901 -1.858157 81.758478 1.197364 -0.724378 21.454551 0.003097 0.000001 -177.688054 2.055805 178.313385 -14.858317 1.789645 0.717715 84.382930 -0.611180 -0.286941 21.454558 -0.003106 -0.000018 6.194061 -0.361984 -0.018727 2.356959 -0.697505 -0.059052 2.038857 -0.697599 -0.054741 17.475664 4.572897 -0.377495 -16.772122 -2.803331 0.632234 -67.416112 -81.718665 -115.140816 -10.716351 -1.940468 -7.800350 -8.028075 -13.326392 0.885822 8.976111 6.625410 11.363400 -134.404749 87.445184 47.411686 0.003825 -0.845260 12.767010 -13.929843 17.495989 -1.190232 15.212737 3.672904 -16.702169 
209.320404 92.722893 -309.300110 91.002913 4.187270 89.677802 -175.162278 -1.448299 177.532695 -8.259828 -2.504903 -1.872588 81.753294 1.209131 -0.716959 21.454553 0.003098 0.000002 -177.697562 2.055803 178.313385 -14.846591 1.789643 0.701751 84.356122 -0.600064 -0.286946 21.454555 -0.003114 -0.000019 6.194048 -0.361984 -0.018724 2.369783 -0.697504 -0.041201 2.051668 -0.697593 -0.036924 17.492521 4.552147 -0.304060 -16.830624 -2.852931 0.728998 -67.397937 -81.733329 -115.157536 -10.684699 -1.952144 -7.697702 -8.042548 -13.339130 0.885824 8.948950 6.662033 11.288774 -135.081812 87.460244 46.731567 0.029692 -0.845261 12.819089 -13.816805 17.447240 -1.190238 15.218753 3.634456 -16.724002 
209.326904 92.724457 -309.318909 91.002900 4.187272 89.668083 -175.171020 -1.448304 177.532695 -8.259825 -2.504909 -1.876961 81.746381 1.213523 -0.711019 21.454551 0.003083 -0.000001 -177.706755 2.055798 178.313372 -14.843934 1.789649 0.697264 84.338541 -0.597063 -0.286942 21.454560 -0.003110 -0.000018 6.194055 -0.361979 -0.018727 2.382377 -0.697499 -0.033096 2.064255 -0.697599 -0.028844 17.506951 4.526160 -0.243260 -16.863986 -2.897743 0.810072 -67.355890 -81.752686 -115.197615 -10.635730 -1.971942 -7.631378 -8.058437 -13.359561 0.885821 8.903365 6.626253 11.242594 -135.802930 87.472757 46.007263 0.071580 -0.845260 12.825507 -13.742989 17.410272 -1.190228 15.229223 3.574070 -16.718611 
209.329300 92.725388 -309.332886 91.002913 4.187268 89.684728 -175.180227 -1.448301 177.538077 -8.259827 -2.504904 -1.870998 81.736512 1.210268 -0.706800 21.454551 0.003079 -0.000002 -177.712629 2.055804 178.321308 -14.843931 1.793752 0.701332 84.329457 -0.600001 -0.286945 21.454558 -0.003102 -0.000017 6.194048 -0.361985 -0.018727 2.390793 -0.697490 -0.034565 2.072673 -0.697598 -0.030333 17.547588 4.479855 -0.213219 -16.929677 -2.936738 0.856181 -67.300033 -81.768771 -115.251929 -10.596300 -1.997866 -7.619027 -8.060772 -13.366951 0.885818 8.851901 6.600819 11.267943 -136.307148 87.486507 45.500692 0.145131 -0.845261 12.771200 -13.750291 17.422387 -1.190228 15.228207 3.501777 -16.729010 
209.330307 92.726089 -309.342407 91.002907 4.187272 89.724992 -175.193642 -1.448299 177.564687 -8.259821 -2.504901 -1.863728 81.726226 1.205840 -0.703615 21.454553 0.003091 -0.000002 -177.714801 2.058806 178.341553 -14.841412 1.799128 0.712084 84.325618 -0.607356 -0.286939 21.454557 -0.003112 -0.000018 6.194057 -0.361977 -0.018727 2.391885 -0.697505 -0.041209 2.073770 -0.697597 -0.037001 17.623871 4.419702 -0.204426 -17.013455 -2.967415 0.875813 -67.209820 -81.780491 -115.340885 -10.579900 -2.026595 -7.643099 -8.055336 -13.352959 0.885826 8.832254 6.589490 11.333175 -136.375409 87.492743 45.432096 0.227533 -0.843023 12.711573 -13.814242 17.489961 -1.194910 15.198397 3.485816 -16.786372 
209.332108 92.726646 -309.347290 91.008596 4.187275 89.775221 -175.204843 -1.444791 177.594658 -8.259825 -2.504910 -1.852249 81.717660 1.199197 -0.697616 21.454551 0.003100 0.000002 -177.709870 2.065008 178.364243 -14.833907 1.806159 0.727143 84.324334 -0.617437 -0.286942 21.454557 -0.003115 -0.000019 6.194053 -0.361988 -0.018738 2.386269 -0.697379 -0.049954 2.068158 -0.697477 -0.045766 17.721962 4.381171 -0.190951 -17.067587 -3.003069 0.900634 -67.033526 -81.793093 -115.516025 -10.559221 -2.044843 -7.658619 -8.069055 -13.341311 0.885814 8.862363 6.589612 11.363404 -136.038093 87.478884 45.771256 0.282007 -0.821286 12.701547 -13.899571 17.574850 -1.200829 15.166100 3.516793 -16.881842 
209.336197 92.726883 -309.348297 91.015658 4.187272 89.816557 -175.210485 -1.438796 177.613072 -8.259832 -2.504903 -1.838978 81.713446 1.191822 -0.689640 21.454555 0.003099 0.000001 -177.702343 2.073903 178.378067 -14.827859 1.812507 0.742073 84.325816 -0.627050 -0.286948 21.454555 -0.003104 -0.000017 6.192615 -0.361987 -0.018733 2.377638 -0.697041 -0.057977 2.059517 -0.697137 -0.053800 17.814530 4.384317 -0.161155 -17.080222 -3.043006 0.943478 -66.867668 -81.795750 -115.681562 -10.526509 -2.047724 -7.649900 -8.113397 -13.356878 0.885820 8.915195 6.612576 11.311281 -135.490558 87.455470 46.321397 0.307004 -0.777707 12.705777 -13.985512 17.638945 -1.205453 15.148550 3.575202 -16.953860 
209.342499 92.726212 -309.346313 91.022632 4.189806 89.836959 -175.208163 -1.431595 177.608114 -8.258564 -2.504906 -1.823886 81.714642 1.183624 -0.680023 21.454551 0.003095 0.000001 -177.698204 2.084105 178.383258 -14.833544 1.814782 0.749697 84.333165 -0.631269 -0.286942 21.454558 -0.003117 -0.000018 6.190661 -0.361986 -0.018723 2.368800 -0.696535 -0.061328 2.050679 -0.696644 -0.057135 17.890449 4.416694 -0.131043 -17.079633 -3.060090 0.978594 -66.820308 -81.780061 -115.730575 -10.506650 -2.048153 -7.649518 -8.152052 -13.390010 0.885812 8.936616 6.646863 11.214476 -134.832032 87.442124 46.982781 0.324623 -0.744989 12.670964 -14.069939 17.681956 -1.207641 15.141020 3.640338 -16.965700 
209.350296 92.724037 -309.342590 91.028096 4.198413 89.836740 -175.202385 -1.421705 177.599153 -8.270323 -2.504905 -1.818628 81.726369 1.181412 -0.673863 21.454553 0.003093 0.000001 -177.698491 2.094902 178.392657 -14.857120 1.815310 0.742503 84.348547 -0.625341 -0.286241 21.454558 -0.003111 -0.000018 6.188477 -0.361984 -0.018723 2.362670 -0.695945 -0.057098 2.044556 -0.696042 -0.052907 17.940236 4.439068 -0.126307 -17.084057 -3.038793 0.973859 -66.870462 -81.752262 -115.683160 -10.513060 -2.044472 -7.713952 -8.160353 -13.421210 0.885821 8.920868 6.684748 11.163674 -133.772479 87.443196 48.046091 0.328317 -0.752613 12.608784 -14.132367 17.715690 -1.209493 15.144464 3.698378 -16.955615 
209.358398 92.720863 -309.336914 91.031737 4.216610 89.829220 -175.188806 -1.411803 177.601434 -8.289959 -2.504912 -1.824657 81.744776 1.186335 -0.670851 21.454553 0.003091 0.000000 -177.690937 2.107418 178.414021 -14.885016 1.815011 0.723033 84.366947 -0.611735 -0.285528 21.454560 -0.003105 -0.000016 6.186263 -0.361980 -0.018730 2.360803 -0.695306 -0.046679 2.042656 -0.695405 -0.042490 17.962139 4.432680 -0.150709 -17.088904 -3.009522 0.936463 -66.894606 -81.733329 -115.660948 -10.527023 -2.023502 -7.832210 -8.148403 -13.435870 0.885822 8.886293 6.724826 11.206165 -132.364722 87.457164 49.457769 0.319246 -0.787714 12.556283 -14.143531 17.731719 -1.210989 15.192625 3.721748 -16.970952 
209.366394 92.717987 -309.329712 91.034134 4.239731 89.822984 -175.168452 -1.403787 177.614507 -8.306687 -2.504912 -1.835337 81.762501 1.194450 -0.668037 21.454555 0.003079 0.000000 -177.670883 2.120807 178.435496 -14.900251 1.814849 0.704920 84.381024 -0.599505 -0.283914 21.454558 -0.003115 -0.000018 6.184268 -0.361977 -0.018720 2.359401 -0.694685 -0.034224 2.041284 -0.694790 -0.030054 17.965643 4.412807 -0.182281 -17.090293 -3.003541 0.900741 -66.855326 -81.724593 -115.701164 -10.540169 -1.980428 -7.940686 -8.136009 -13.426509 0.885822 8.846140 6.791883 11.273708 -131.100017 87.470749 50.725810 0.304809 -0.812011 12.532639 -14.099058 17.714260 -1.212191 15.293980 3.712352 -16.985851 
209.373398 92.716042 -309.322906 91.037071 4.261203 89.828005 -175.146582 -1.398397 177.619588 -8.314232 -2.504904 -1.835005 81.773661 1.195603 -0.662448 21.454551 0.003093 0.000001 -177.644778 2.129393 178.447612 -14.902383 1.814691 0.699552 84.390423 -0.594982 -0.280186 21.454557 -0.003104 -0.000016 6.182721 -0.361985 -0.018732 2.355226 -0.694137 -0.026699 2.037102 -0.694255 -0.022546 17.959322 4.391280 -0.193013 -17.090504 -3.009947 0.892002 -66.874013 -81.706418 -115.684253 -10.571850 -1.937032 -7.982762 -8.116938 -13.397082 0.885816 8.809318 6.865690 11.291836 -130.191889 87.467963 51.636722 0.278539 -0.821430 12.547621 -14.032259 17.675712 -1.213113 15.376981 3.681087 -16.985789 
209.378799 92.714539 -309.319489 91.042836 4.278456 89.848133 -175.129479 -1.392495 177.621433 -8.314664 -2.504911 -1.823931 81.776714 1.189541 -0.655553 21.454555 0.003090 -0.000001 -177.622389 2.131502 178.448104 -14.903550 1.805373 0.711476 84.400852 -0.600467 -0.267900 21.454558 -0.003100 -0.000018 6.179355 -0.361985 -0.018725 2.348072 -0.693743 -0.028462 2.029943 -0.693855 -0.024309 17.950179 4.368212 -0.182243 -17.092178 -3.010943 0.904154 -67.003288 -81.674705 -115.558072 -10.623889 -1.910975 -7.967840 -8.084011 -13.367698 0.885816 8.801735 6.936332 11.278848 -129.459501 87.443579 52.372777 0.236665 -0.840140 12.587965 -13.985102 17.643200 -1.213775 15.377910 3.641978 -16.979039 
209.382797 92.712784 -309.319489 91.050062 4.294682 89.875761 -175.116433 -1.386601 177.622034 -8.315589 -2.504905 -1.807717 81.776496 1.179813 -0.648985 21.454553 0.003105 0.000001 -177.604863 2.132815 178.444115 -14.910725 1.792176 0.731090 84.414827 -0.610633 -0.252883 21.454560 -0.003110 -0.000017 6.175364 -0.361981 -0.018740 2.340006 -0.693550 -0.034421 2.021896 -0.693648 -0.030272 17.947852 4.353864 -0.168756 -17.097635 -3.021471 0.922600 -67.141716 -81.652446 -115.421973 -10.664582 -1.903968 -7.954320 -8.045570 -13.348278 0.885818 8.811242 6.974775 11.279403 -129.158768 87.405651 52.676673 0.207373 -0.862880 12.621755 -13.967722 17.626920 -1.214180 15.329233 3.614787 -16.983721 
209.385406 92.710854 -309.322601 91.057159 4.312354 89.904674 -175.105560 -1.380599 177.635339 -8.316834 -2.504897 -1.798213 81.774911 1.174100 -0.645080 21.454553 0.003083 -0.000003 -177.587719 2.133654 178.449798 -14.917456 1.785223 0.745024 84.428645 -0.618158 -0.243590 21.454558 -0.003103 -0.000017 6.172422 -0.361970 -0.018726 2.331961 -0.693617 -0.040256 2.013846 -0.693708 -0.036085 17.960910 4.349642 -0.166850 -17.119546 -3.051210 0.935645 -67.157555 -81.661011 -115.405198 -10.662760 -1.910079 -7.960113 -8.006348 -13.332761 0.885816 8.808650 6.991507 11.318064 -129.508788 87.366411 52.327889 0.204245 -0.871672 12.646712 -13.948430 17.618319 -1.214350 15.297370 3.605966 -17.014119 
209.387497 92.709213 -309.327789 91.062404 4.335213 89.924420 -175.089058 -1.374696 177.652715 -8.317565 -2.504907 -1.797578 81.772350 1.173446 -0.644598 21.454551 0.003090 -0.000001 -177.564250 2.134246 178.468144 -14.916870 1.785928 0.745368 84.436971 -0.619491 -0.241359 21.454560 -0.003101 -0.000016 6.170625 -0.361980 -0.018728 2.330650 -0.693992 -0.043671 2.012531 -0.694069 -0.039476 17.989012 4.335882 -0.172846 -17.156445 -3.084317 0.941378 -67.065696 -81.686269 -115.494510 -10.626830 -1.921303 -7.942912 -7.969164 -13.321001 0.885819 8.789000 6.996101 11.344951 -129.992133 87.342881 51.844472 0.206721 -0.886910 12.695816 -13.900467 17.616634 -1.214302 15.299289 3.584541 -17.075229 
